# xmcd CD database file
#
# Track frame offsets:
#	150
#	19725
#	39537
#	56672
#	82822
#	100767
#	121867
#	142007
#	163137
#	184895
#	202005
#	221570
#	241882
#	259015
#	278560
#
# Disc length: 4315 seconds
#
# Revision: 1
# Processed by: cddbd v1.5.1PL0 Copyright (c) Steve Scherf et al.
# Submitted via: CDex 1.51
#
DISCID=d110d90f
DTITLE=Marc Anthony - Marc Anthony
DYEAR=1999
DGENRE=Latin
TTITLE0=When I Dream at Night
TTITLE1=Am I the Only One
TTITLE2=I Need to Know
TTITLE3=You Sang to Me
TTITLE4=My Baby You
TTITLE5=No One
TTITLE6=How Could I
TTITLE7=That's Okay
TTITLE8=Don't Let Me Leave
TTITLE9=Remember Me
TTITLE10=She's Been Good to Me
TTITLE11=Love Is All
TTITLE12=Dimelo [I Need to Know]
TTITLE13=Como Ella Me Quiere a Mi [She's Been Good to Me]
TTITLE14=Da la Vuelta
EXTD=YEAR: 1999
EXTT0=
EXTT1=
EXTT2=
EXTT3=
EXTT4=
EXTT5=
EXTT6=
EXTT7=
EXTT8=
EXTT9=
EXTT10=
EXTT11=
EXTT12=
EXTT13=
EXTT14=
PLAYORDER=
